<svg xmlns="http://www.w3.org/2000/svg" viewBox="0 0 696 693" width="696" height="693"><path fill="#2F2739" d="m477.65 4.26 2.7 1.6 3 1.8 3.1 1.8 3.2 2 9.4 5.5 4.7 2.9 12.9 7.9 4.3.9 9.4-4.7 2.2-1.2 10.4-6.2 1.9-1.1 5.1-3.1 9.1-.4 4.9 2.7 2.8 1.6 3 1.9 6.5 3.8 3.4 2 16.5 9.6 47.7 28.1 13.7 8.2 8.3 4.9 4.6 2.7 7.4 4.4 2.3 1.3 10.6 11.5.3 21.8v6.4l-10 22.1-1.4 1.7-6.8 8-8.5 10.5-9.8 12.3-10 12.5-14.5 18-34.7 43-6.8 8.5-2.2 2.8-5.1 5.3c-9.6 10.1-8.8 22.1-8.9 35.5-.5 4.1-2 6.7-5 9.5-5.7 4.2-11.7 7.8-17.8 11.3-1.1.6-2.1 1.2-3.1 1.8-2.5 1.5-5 2.9-7.4 4.3 6.3 4.4 12.8 8.4 19.3 12.4l3 1.8c7.7 4.7 15.4 9.3 23.2 13.8 4.5 2.7 9 5.4 13.5 8l3.3 2.1c3.3 1.9 6.5 3.8 9.7 5.7.9.6 1.9 1.1 2.9 1.7.9.6 1.8 1.1 2.7 1.7.8.4 1.5.9 2.3 1.4 2.3 1.6 3.6 3 5.1 5.4.3 2.6.3 2.6.4 5.3.6 3.6 1.1 5.3 3.7 7.8 3 1.9 5.9 3.5 9 5.1 2.3 1.2 4.5 2.4 6.7 3.6 1 .5 2.1 1.1 3.2 1.7 3.6 1.9 7.1 4 10.6 6.1 1.1.7 2.3 1.4 3.4 2.1.6.3 1.2.7 1.8 1.1 4.6 2.7 9.2 5.5 13.8 8.2 1 .6 2 1.1 2.9 1.7.9.5 1.8 1.1 2.8 1.6l2.4 1.5c2.3 1.2 2.3 1.2 4.4 2.1 2.6 1.6 3.5 3.4 4.9 6.1.3 2.9.3 2.9.4 6v11.4c.1 2.8.1 5.6.1 8.3v20.8l.1 3.8-2.9 13.4-7.6 5.6-2.8 1.7-3 1.7-6.3 3.8-3.1 1.8-12.3 7.4-4.3 2.7-8.8 5.3-13.5 8.3-2.7 1.7-8.2 4.9-2.5 1.6-18.5 5-27.1-16.3-9 .1-6.2 3.4-1.8 1-5.3 3.3-3.5 2.1-15.7 9.8-17.5 10.4-32 19.2-13.5 7.1-12.5 8.7-.4 23.1-2.6 14.9-5.2 3.6-3.5 2-2 1.1-14 8.3-3.3 2-23.4 14.3-23.5 14.2-2.4 1.4-2.1 1.2-1.9 1.1-14.7 1.8-13-7-4.5-2.6-31-19-27.6-16.7-24.9-15.2-17.7-10.7-24.3-14.8-3.6-2.1-12.4-7.7-22.5-13.6-39-24-7-4.3-3.9-2.4-3.1-2-5.5-5.9-.5-5.7v-39.2l-.1-3.7.1-3.5v-3.1l4.5-7.8 5-2.8 21.6-13.3 13.4-7.9-2 .3-49-1.3-2.2-.3-100.8-52.7-3-13 8.1-15.8 1.5-2.4 12.4-15.8h2l2-4 20-18 5.5-4.6 49.4-32.2 2.7-1.5 2.4-1.4 4-3.3.3-9v-2.7l.2-8.6.1-11.4v-2.6l.1-2.5v-2.1l3.7-7.4 1.8-1.1 1.9-1.3 2.1-1.4 4.4-2.9 2.2-1.5 9.8-6.8 1.7-1.2 4.7-3.5 3.3-1.9 3.2-5.7.1-10.1 4.4-22.3 11-7 6.2-3.7 6.6-3.9 3.5-2.1 5.4-3.2 11.5-6.8 3-1.7 5.3-3.2 15.9-9 9.9-5.7 4.4-2.6 2.5-1.4 14.7-8.6 5.5-3.3 13.5-7.9 36.7-21.5 1.9-1.1 10-6 17.8-10.5 5.6-3.3 20.3-11.7 11.7-6.9 19.4-11.2 23.5-13.9 14.3-8.2 8.7-4.9 3-1.7 5.9-3.4z"/><path fill="#635F6A" d="m474 15 12 7 3.4 2.1 6.6 4 11.4 7 1.7 1L527 46v2l2.1.2L539 53v2l1.7.8 6.9 6.2 2.4 2.7 2 2.3 2 2-1 7h2l2 4 4.8 2.2 5.7-1.3 8.5.1 5.2 3.3 13.3 6.7 5.8 2.9 13.9 5.8L625 106l-1 5-8.4 5.7-2.6 1.6-19.2 10.9-23.3 14.2-13.1 8.2-2.6 1.6-19 11.6-32.4 20.1-29.9 18.3-21.6 13.1-25.9 15.9-14.5 8.8-5.8 3.5-11.4 7-23.6 14.3-3.2 1.9-6.4 3.8-14.7 9.1-2.7 1.8-4.8 3.2-2.1 1.4-1.9 1.2-6.9-.2-5.1-3.6-17.8-11.3-6.9-3.9-1.8-1.1-20.1-12-1.8-1.1-8.5-5.2-11.2-6.7-15.6-9.8-16-9.6-14-7.8-2.8-1.6L188 200l-11-10-1-3 11.2-8.9 1.8-1 5.8-3.3 3.9-2.3 7.8-4.5 12.4-7.2 4-2.4 9.2-5.4 53.6-31.3 37.1-21.6 26.3-15.4L364 75l17.8-10.4 14.9-8.7 6.9-4 35-20.7 2-1.3 11.7-7.3 5.4-3.4 2.5-1.6z"/><path fill="#3D3645" d="m142 291 9.8 5.9 2.8 1.8 19 12.2 16.4 10.2 2.5 1.5 12.4 7.2 2.4 1.4 4.3 2.4 18.6 30.3 1 3.1 4.4 17.7 1.6 5.4L233 412l-49 28-19 3-4.8.6-54.3-3.4-3.2-.7-14.9-6.4-9.1-3-4.2-1-2.2-.5-28.7-12.5-10.8-6.6-16.3-14.9 2-14.2L25 372l2.1-2.7L98 312.6l14-8.6 13-8 1.9-1.2 4.5-2.7 2.3-1.3z"/><path fill="#87534A" d="m518.25 223.87 1.7 1.1-8 11.5-26.1 33.8-2.2 3.4-2 3.1-1.7 2.2h-2l-2 4-3 3.8-1.5 1.8-3.5 1.4-.5 3.9-.3 2.2.8 3.9 7.3-.1 2.2-.1 4.7-.3 7.1-.4 4.6-.3 2.1-.1 14-3.7 7-1 13.1-3.3 11.9-1.7 2.7-.2 10.3 2.4 4.9 10.8-20.5 15.2-6.2 3.4-3.1 1.7-14 8.2-5.5 3.2-2.7 1.7-14.6 8.5-3 1.8-18.8 10.8-33.3 19.5-23.8 13.9-22.2 13.3-22.2 13-16.2 9.7-2.9 1.9-5.4 3.5-2.4 1.6-2.1 1.4h-4l-2-1.3-.5-9.2v-82.9l2.5-9.9 5.6-4.2 2-1.1 2.1-1.1 4-2.2 2.1-1.2 9.3-5.4 10.5-6.2 4.1-2.5 6.2-3.7 24-14.4 16.4-10 1.8-1.1 29.6-17.8 18.1-11.1 15.4-9.2 13.4-8.3 2.8-1.7 5.2-3.3 2.4-1.5 2.1-1.3z"/><path fill="#D39450" d="m537 345 11 4 12.8 8.1 1.8 1 3.7 2.1 5.7 3.4 13.8 8.1L600 380l3.1 1.8 2.5 1.5 2.1 1.3 1.4 3.8-7.4 6.8-2.1 1.3-4.9 2.9-8.9 5.4-69.8 41.6-15.4 9-23 13.5-18.5 10.8-2 1.2-9.7 5.6-3.5 2.1-3.1 1.9-5.6 2.5-2.2 1-.5 8.8.7 16.3v3.5l-4 25.4-8 5.4-3.7 2.1-2.1 1.2-14.6 8.4-3.1 1.8-3 1.7-2.9 1.7-5.6 3.5-2.7 1.7-2.3 1.5-4.4.7-2.8-1.7-.1-8.7-.1-5.4-.1-8.5v-10.8l-3.1-9.6-8.8-5.9-1.9-1.1-6.9-4-3-1.7-3.3-1.9-3.4-2-6.7-3.8-19.3-11.6-16.7-10.2-1.9-1.1-24.3-14.5-21.1-12.8-2.4-1.4-8.9-8 8.8 2.6 15.6-.6 7.3-4.1L289 446l8 4.2 2.4 1.3 7.6 4.5 2.5 1.5 16.3 9.6 16.4 9.7 3.8 2.2 29.9 12.9 10.3-6.8 17.2-9.8 33.5-18.7 16.5-9.5 60.2-35.5 1.8-1.1 5-3.1 2.9-1.7 2.7-1.7 3.2-1.9 5.8-7.1.5-11.2v-3.2l.1-10.4.1-10.3.1-6.4v-3l.1-2.6z"/><path fill="#654043" d="m605 392 2 1v4l6 5 1.4 16.6v4.5l.1 6.5.1 3.9-5.6 8.5-6 3.6-1.7 1-3.7 2-9.4 5.3-1.9 1.1-15.4 9.2-2 1.3-8.5 9.4-.6 6.1-.1 2.4-.1 2.5-.3 5.4-.3 8.4-.3 8.1-.1 2.5-5.7 14.9-36.6 22.4-16.1 9.5-18.3 10.9-10.9 6.5-1.8 1.2-4.6 3-4.8 1.2-4.6-4.3-1.2-1.9-1-3.7-2-1-2-1v-2l-2.2-.3-5-2.1-9.8-3.9-4-2.7-2-5-1-2 2.4-1.8 4.8-25.5v-7l-.8-14.3 1.6-7.4 4.6-3 2.9-1.6 3.1-1.8 6.6-3.7 3.4-2 15.7-9.1 21.8-12.6 17.7-10.5 15.1-8.8 39.7-23.6 13.1-8 1.9-1.1 7.4-4.5 5.1-3.1 3.1-1.9 7.5-4.7z"/><path fill="#939797" d="m489.68 129.88 22.3 2.1 3.6.5 15.4 4.3 16.8 2.6h2.6l28.7-6.7 1.9-.7 2 1-6.6 7.1-2.9 1.7-3.1 1.9-6.3 3.7-3.2 1.9-11 6.8-3.8 2.4-2 1.2-39.8 24.6-17.7 11-19.3 11.8-22.2 13.4-1.8 1.1-25.3 15.5-46.8 28.4-16.8 10.2-3.8 2.3-5.4 3.2-3.2 2-6 4.1-5.5 1.7-7.5-4.6-17.9-11.3-6.9-3.9-1.7-1-20.2-12.1-1.8-1.1-8.5-5.2-9.4-5.6-18-11.1-2.2-1.4-2.1-1.3-1.8-1.2-2.5-4.2 24.8 9.5 3.8 1.9 5.8 2.9 21.1 10.1 14.4 7.5 7.1 3.1 4.6 2.4 2.6 1.3 2.6 1.4 2.6 1.4 7.6 4.5h5l4.3-6.8 1.1-2.2 3.6-7 2.3-4.4 5.8-11.3 20-38 6.5-12.1 1.8-3.5 3.6-6.8 13-17.9 4 1 2 4.1 4.3 9.4 1.7 5.5 12.9 2.8 3.9.4 4 .4 4.1.4 7.7.7 6.2.8 6.2.5 6.6-15.8.6-2.8 3.4-17.6 7.1-18.5 9.2-2 2-.1z"/><path fill="#635F69" d="m474 15 12 7 3.4 2.1 6.6 4 11.4 7 1.7 1L527 46v2l2.1.2L539 53v2l1.7.8 6.9 6.2 2.4 2.7 2 2.3 2 2-1 7h2l2 4 4.8 2.2 5.7-1.3 8.5.1 5.2 3.3 13.3 6.7 5.8 2.9 13.9 5.8L625 106l-1 5h-3l-73.3 6.1-25 3.4-2.7.4-33 2.9-24.7 3.7-43.9 6.9-2.8.3-2.5.3-2.3.2-1.8-.2-1.8-5.3 3.8-8.5 1.8-3.5 2-3.6 2.1-3.8L423 99l1.6-3 5.8-10.6 17.9-33.2 4.6-8.6 2.4-4.5 1.1-2 3.7-8 .9-2.1h2l1.1-4.4.7-2.4.2-2.2-2-2z"/><path fill="#4A4854" d="m676.56 105.25 4.4 2.8-.3 4.4-.7 8.3-15.2 27.2-15.2 19.1-11 13.2-11.6 13.8-5 6.2-3.4 4.2-9.6 10.6-4.8 6.1-2.6 3.5-1.3 1.8-13.9 17.2-6.7 8.3-3.3 4-14.7 29.3-.1 2.9-.1 3.1-.2 3.1-.3 7.7-5.6-10.2-4.9-2.3h-6.6l-19.9 4.5-10.2 1.3-7.5 2.1-12.7 2.3-2.3.1-7.3.3-4.9.3-12.1.6 1-11 5-5 2.7-3.2 3.7-4.1 6.2-8.6 22.2-28.7 2.2-2.4 2.7-2.9 2.5-3 2.4-2.6 1.4-2.5-2-5 41.8-24 7.2-5 10-7 4.8-2.9 2.6-1.6 21.2-13 6.8-4.2 19.4-12.6 1.8-1.2 7.4-9.5.5-5.1 6.2-11.4z"/><path fill="#865348" d="m165 228 7.6 4.1 4.3 2.5 2.1 1.2 8.1 4.4 17.6 10.6 22.6 13.5 36.2 21.6 8.5 5 2.6 1.6 5.2 3.1L297 311l.6 9.9.1 3 .5 31 .1 2.9v15.5l.1 15.8v12.3l.1 5.9v10.5l-2.4 9.1-6.6 4.6-2.6 1.3-2.7 1.3-5.3 2.5-2.5 1.2-6.4 3.5-5.3 1.9-3.3-5.9-.6-15.8v-23.6l.8-40.6.2-2.8.8-12.3-.6-11.2-11-7-4.3-2.9-58.1-35.8-43.5-26.1-2.3-1.4L132 250l5.9-7.1 2.3-1.6 2.5-1.7 2.4-1.7 4.7-3.3 4.1-3.1z"/><path fill="#777D83" d="m142 291 9.8 5.9 2.8 1.8 19 12.2 16.4 10.2 2.5 1.5 12.4 7.2 2.4 1.4 4.3 2.4L222 344v6l-72 26-2.5.6-22.3 2.8-42.2 4.2-10.5 1.2-3.3.4L52 383l-.9-2-3.1-2.9-3.5-3.2L48 364l13.5-11.4 1.9-4.2-.4-2.4-2.1-1.5L59 343l3.1-7.1 2.9-2 1.6-1.2L98 312.6l14-8.6 13-8 1.9-1.2 4.5-2.7 2.3-1.3z"/><path fill="#3D3645" d="m129.75 499.22 8.2 4.3 2 1.2 4.4 2.7 8.9 5.4 27.5 16.7 7.5 4.6 3.6 2.1 16.7 9.8 17 10.1 3.1 2 21.4 13.5 25 15.6 9.4 5.8 44.6 26.4 3.2 1.7 6 3.4 14.8 11.4-1.2 35.9-5 1.2-12.1-5.8-2.3-1.5-4.9-3.1-7.6-4.8-17-10.8-17.6-10.4-15.3-9.1-35.5-20.7-15.9-10-11-6.2-20.7-13.6v-2l-2.5-.7-11.4-6.1-4.8-2.9-2.5-1.6-17.5-10.7-8.3-5-3-1.9-3-1.8-2.6-1.6-5.4-5.7-.3-8.5v-22.9l.3-5.6z"/><path fill="#4A4854" d="m175 465 3.9 10.9 9.6 16L224 513l2 1.1 35 16.8 19.8 10.8 12.9 7.6L325 568l6.2 3.7 3.2 2 9.6 5.7 11.2 6.8 2.3 1.5 4.2 2.6 8.1 2.8 13.9-6.5 3-1.6 14.8-8.2 2.6-1.6 4.8-2.9L421 569l7.3 3.8 1.9 1 6 5.2-2.1 3.9-12.4 7.7-5.9 3.4-3.3 1.9-18 10.7-6.1 3.6-2 1.2-3.8 2.2-9.2 5.8-1.8 1.1-4.6 3.1-10 1.4-3.8-1.9-2.1-1.3-2.2-1.5-4.8-3-2.5-1.7-13.5-8-22.9-14-18.6-11.5L254 562l-2.5-1.6-23.3-15.1-27.7-16.7-15.4-9.5-16.5-10.6-2.7-1.7-10.4-6.3-6.6-4.1-2-1.2-7.9-6.2v-5l10.8-5.8 12.5-8.7zM541 55l13.8 6.8 4.2 2.6 2.1 1.4 7.7 4.8 2.3 1.3L576 74l3 3 11.9 7.3 3.2 2 27.5 12.8 7.4 4.9-.1 26.2-.3 3.7-5.6 15.6-14.3 8.6-3.3 1.8-6.4 3.5-10.1 5.6-5.5 2.5-7.5 4.3-6.8 2.1-4.1-2.9 2.6-8.7 4.2-3.5 6.1-5.7L596 144l-1-3-4.2.4-2.4.3-9.6 5-9.9 8.8-6.6 7-6.4 3.7h-2.3l-6 2.2L544 181l-1 2-.2 2.3-6.7 8.3-1.9 1.5-49.7 30.6-13.6 8.3-24 13.6-13.1 8.2-30.1 8.4L390 268l-3.4 3.5-8 5.4-2.7 1-2.9 1.1-3.2 1.2-10.3 3.6-3.5 1.3-20 1.9 14.4-9.9 2.8-1.8 22.2-13.2 28.2-17.1 29.4-18 3.4-2 7-4.3 7.2-4.4 3.5-2.1 1.8-1.1 11.1-6.8 32-19.7 23.9-14.7 18.1-11.2 18.7-11.5 14.3-9 27.7-16.6 2.2-1.2 2.1-1.2 11.6-6.5 3.1-1.8 3.3-4.5V106l-17.5-8.1-11.7-5.7-8.6-4.2-6.3-3.7L568 81l-3 2-8.9-1.2L555 76h-2l.6-2.9-2.5-6.4-4.8-4.5z"/><path fill="#654043" d="M518 354v7l2 1h-3l1 3-2.5.9-2.5 1.1v2l-2 2 1.8-1.3 2.4-1.8 2.4-1.7 4.6-.9 2.8 1.7.4 12.2.1 3.5-2.3 12.2-15.4 9-7.4 4-1.9 1-18.4 10.8-30.2 17.7-16.7 9.5-1.8 1-25.3 14.6-3 1.7-12.6 7.5-1.9 1.2-5 3-4.9.5-2.7-4.4-.6-12.4-.2-3.5-.1-3.3-.1-3.1 1-6.7.3-6.3L381 423l20.5-12.8 5.8-3.2 3-1.5 11.6-6.4 2.2-1.2 12.4-7 37.2-19.8 6.6-3.2 1.9-1 4.8-2.5 13.6-4.4 10.2-4.2z"/><path fill="#929696" d="m466 18-3 9h-2l-.5 1.6-7.9 18.1-1.6 3-13.9 25.6-9.9 18.3-1.8 3.3-8.4 15.9-4.1 7.7-1.9 3.7-2.7 5.2-1.6 3-12.8 8.3-2.3.5-2.5.5-5.1 1.1-7.8 1.6L351 146l-2.7-.4-7-7.2L339 109l-1-12v-7l11.5-7.1 3.6-1.9 7.3-4 15.7-9.1 6-3.5 3-1.7 8.7-5.1L425.3 39l5.8-3.4 17.1-10.4 2.8-1.8 5.1-3.1 2.2-1.4 1.9-1.2z"/><path fill="#B46846" d="M411.38 340.94h2.5l6.1.1-.3 2.5-.4 3.3-.3 3.2 1.3 4.8 12.1 3.1 14.6 5.1-3.2 8.4-8.9 6.4-4 2.3-2.3 1.3-14.3 8.5-5.4 3.2-18 10.7-21.7 12.9-8.8 5.2-4.3 2.5-9.7 5.8-3.2 2-2.9 1.8-2.3 1-3-2-.4-6.7v-23.5l-.1-12.8v-24.8l4.5-8.2h2l1-3 13.9-3.8 27.1-5.3 13-2.9 2.7-.6z"/><path fill="#654043" d="m204.59 450.43 10.7 4.5 2.2 1.2 15.1 10.4 18.7 10.2 25.8 12.9 13.3 7.6 16.8 9.4 3.2 1.9 6 3.6 18 8.7 8.2 5.4 6.4 4.8v2l5 2 9 7 1.3 24.2v2.5l-1.7 8-1.6 1.3-13.7-7.2-5.4-3.3-2.9-1.7-9.3-5.6-37.1-23.6-15.4-9.9-16.5-12-19.7-12.8-7.7-4.7-17.3-10.2-8.4-4.6-2.1-1.1-10.5-10.3-.2-9-.1-2.5v-4.6z"/><path fill="#767C82" d="M617.25 110h4.8l-5.9 6.5-2.4 1.4-2.5 1.4-2.6 1.4-5.2 2.9-10.4 6-10 5.4v-2l-9.7 2.9-39.4 3-6.9-2.7-10.7-2-9.2-1.7-21.1-1.5h-2.1l-6 .2-3.7.1-8.2 5.7-2.2 6.8-.5 1.9-3.3 17.2-8 24.1-10.1.5-3-.4-3-.5-21.5-2.2-8.4-3.4-3.2-5.7-1.5-3.3-1.3-3-1.1-2.3-1.9-4.7-7.3 4.6-1.6 1.9-1.1 1.5-1-2 1.8-4.1 1.2-2.5 1.3-2.6 6.7-15.8-2-4 3.2-.6 7.8-7.4 1.2 1.5 5.7 1.5 5.1-.6 2.7-.3 49.9-8.3 15.9-2 36.3-3.3 2.8-.3 22.4-3.1z"/><path fill="#BCAEAB" d="m583 133-6.7 7.1-2.8 1.7-3.1 1.8-6.4 3.8-3.1 1.9-11 6.8-3.9 2.4-1.9 1.2-39.8 24.6-17.7 10.9-19.3 11.8-22.2 13.4-1.9 1.1L418 237l-46.8 28.5-16.8 10.1-3.8 2.3-5.4 3.3-3.2 1.9-6.1 4.2-5.5 1.7-7.5-4.6-17.8-11.3-6.9-3.9-1.8-1.1-20.1-12-1.8-1.1-8.5-5.2-9.4-5.6-18-11.1-2.2-1.4-2.1-1.3-1.9-1.2-2.4-4.2 24.8 9.5 3.8 1.9 5.8 2.8 21.1 10.2 14.4 7.5 7.1 3.1 4.6 2.3 2.5 1.4 2.7 1.4 2.6 1.4 7.6 4.5h5l3.9-6.3 1.1-2.1 6.6-12.7 2.8-5.5 3.7-7.3 1.8-3.5 1.5-3 5.6-5.6 6.9-.6 15.5-1.5 18.6 1.7 12 .4 11.4-5.9 3.2-1.8 6.5-3.6 7.6-4.3 29.3-16.7 21.6-12.3 23.2-13.3 52.2-29 2.9-1.5z"/><path fill="#4A4854" d="m605 392 2 1v4l6 5 1.4 16.6v4.5l.1 6.5.1 3.9-5.6 8.5-6 3.6-1.7 1-3.7 2-9.4 5.3-1.9 1.1-15.4 9.2-2 1.3-8.5 9.4-.6 6.1-.1 2.4-.1 2.5-.3 5.4-.3 8.4-.3 8.1-.1 2.5-5.7 14.9-36.6 22.4-16.1 9.5-18.3 10.9-10.9 6.5-1.8 1.2-4.6 3-4.8 1.2-4.6-4.3-1.2-1.9-1-3.7-4-2 7.1-5.3 2.4-1.3 2.6-1.3 2.6-1.3 12.7-6.4 13.4-9.1 10-5.9 11.4-9.2 7.2-7.8 2.7-2.6 6.7-6.2L559 468h2l-.5-3-.1-12.3.5-14.5 2.1-9.2 1.8-.8 6.3-6.5 2-2.9 4.9-7.8-1-2 2.5-1.5 9-5.3 3.9-2.3 5.6-3.3 3.4-2z"/><path fill="#956D61" d="m537 345 11 4 12.8 8.1 1.8 1 3.7 2.1 5.7 3.4 13.8 8.1L609 386l-3 1-6.5 3.2-2.1 1-7.4 3.8-3.1 1.6-58.5 32.5-23 13.1-21 13L458 460l-7-3-8-3 16.1-10.2 31.3-18.3 3.5-2.2 1.7-1 13-7.8 1.8-1.1 8.9-5.1L535 395l.2-4.8v-3l.1-3.2v-3.3l.3-13.9.1-10.1.1-3.2V348z"/><path fill="#64616C" d="m222 345 10.9 27.4.6 2.3L235 389l-25 11-18.4-2.6-1.8-1.4-5.6-.8-22.8 16.8-16.5 5.3h-2.2L116 411v-2h-2l.9-9 3.1-9-3.1-3.1-1.9-1.5-8-4.4v-2l15.8-1.2L220 351z"/><path fill="#4A4854" d="m129.75 499.22 8.2 4.3 2 1.2 4.4 2.7 12.3 7.4 7.1 4.4 17.1 10.3 7.6 4.6 3.6 2.1 39.9 33.8-.1 8.4v2.3l-2.5 8.9-9.4.4-55-26.8-16.5-10-8.5-5.2-3-1.9-3-1.8-2.7-1.6-5.3-5.7-.3-8.5v-22.9l.3-5.6z"/><path fill="#3E3847" d="m132.88 260.71 31.1 15.3 4.8 3.1 8.3 6.3 20.9 11.6 8.6 4.2 2 .9 8.6 5.5 7.7 4.2 2.4.7 1.7.5 1-4 1.8 1.2 28.5 18.7 2.7 2.1.1 5.1v2.7l-.1 2.2-1.8-1.5-2.2-1.5-4 2-1.3 14.3-.1 2.8-.1 5.9-.2 8.7-.3 31.6-.3 22.9-.1 3.6-.1 3.5v3.1l-1.9 4.4-4.1 1.3-13.5-7.1-1-7 5.2-7.4 3.8-53.6-5-17-.9-3-3.1-6h-9l-2 3-1.6-2.8-8.4-7.2 2-2-1-5-16-12.1-2.7-1.7-42.3-24.5-8-5.7-13-.8-4.9-1.3-1.5-8.8v-3.8z"/><path fill="#8A8A8D" d="m165 228 7.6 4.1 4.2 2.5 2.2 1.2 8.8 4.8L211 257l2 1.8 4.1 7.3 1 2.9 1 3.1 2.1 5.9.9 2.7 2.9 5.3.5 9.9 4.5 7.1 20.3 5.8 3.1.3 29.6.9 1 4-2.7 1.5-3.7 2.1-2 1.1-12.5 8.4-8.1-.1-5.9-4.1-57.9-36.1-40.6-24.2-5-3-5.9-3.7-3.3-2-4.4-5.9 18.8-14.5 2.1-1.6z"/><path fill="#3D3645" d="m176 185 1 5 2.1.6 11 11 16.7 12 19.2 11.1 6.2 3.7 10.8 6.3 3.5 2.1 1.7 1.1 44 26.5 3.4 2 14.7 8.6 2.3 1.4 4.2 2.4L328 287l-7 4v2l-7 1-6-6.7-9-6.3-4 1-3 5-25.7-13.9-18.9-9.5L232 255l-13.4-7.7-32.5-19-2.1-1.3-6-4-2.1-1.5L166 211l-.4-7.5v-3.8l5.2-11.4z"/><path fill="#73777D" d="m558 24 11.8 6.5 3.4 2 7.2 4.3 10.5 6.3 13.5 8 18.5 10.8 26.9 16 1.8 1.1 11.4 7 3.2 2 3.1 1.8 2.7 1.7 3 4.5-12.2 9.4-2.2 1.4-4.4 2.8-4.4 2.9-2.1 1.4-1.9 1.3-5.8-.2-1.5-7.6-6.1-9.3-3-1.9-1.7-1-5.5-3.2-3.8-2.3-9.6-5.7-7.6-4.4-13.3-7.9L535 39l3.1-6.9 2.7-1.7 2.6-1.8L546 27l2.4-1.7z"/><path fill="#87534A" d="m482 389 .4 3.9 2 6.3L487 412l-4.5 6.9-3.2 1.8-1.7 1-5.7 3.2-3.9 2.3-12 6.8-3.4 1.9-12.5 7-30.3 17.4-13.4 7.8-2.3 1.4-4.1 2.4-4 2.3-7.4 2.2-2.8-6.7-.5-8.6-.2-3.1-.1-2.9-.2-2.7 2.2-6.4 6.9-4.6 2.2-1.3 23.8-13.9 5.5-3.2 16.9-9.1 8.8-4.7 28.7-14z"/><path fill="#3D3644" d="m593 140 3 1v3l-3.5 2.2-12.2 9.8-1.9 1.8-8.2 8.1-4.2 2.1v7l5 4-2.4 1.4-39.1 23.4-22.5 13.5-25.8 15.6-19.8 12.2-21.2 13.1-18.5 11.2-23.3 14.3-19.7 12-8.1 4.8-5.2 3-7.2 4.4-2.2 1.2-6.1 7.6 2.1 5.3-4.1 2.8-2.5 1.6-5.8 3.4L335 341h-1v-1.8l.1-19 .1-7v-19L332 289l8-1.9 16.6-3.4 5.2-1.9 2.6-.9 10.4-3.1 14.5-10.4 12.7-4.3 4.2.5 29.1-9.8 24.4-14.2 17.2-10.3 14.3-8.2 45.7-30.2 5.1-3.9v-5l2-5 .4-2.4 4.6-8.6 6.7-.6 9.3-6.4 8.4-7.9 6.5-7 5.2-3.5 5.9.4z"/><path fill="#4A4854" d="m683 454 1.2 9.4.1 2.3v4.6l.1 7.2v4.5l.1 2.2L680 496l-6 4.1-1.8 1.1-6.2 3.8-4.8 2.9-12.8 7.7-10.2 6.1-11.4 6.8-2 1.2-4 2.4-7.8 4.9h-5l-2.4-9.9v-7.4l-.1-7.6-.1-4.8V505l2.8-8.8 9-6.1 1.7-1.1 5.6-3.3 3.6-2.2 5.5-3.3 23.5-14.4 8.4-5.4 1.7-1.1 5.1-3.2 3-1.9z"/><path fill="#604145" d="m440.15 591.4 2.4 5 .1 4.3.1 2.3.1 4.8.2 7.4.1 4.7v2.3l-3.7 12.4-14.8 8.5-20.9 12.2-14.4 8.6-2.7 1.7-5.2 3-4.9 3-2.4 1.4-2.1 1.3h-4.2l-2.8-3.3-.3-7.5v-6.9l-.1-7.2-.1-4.5v-2.2l2.2-8.5 6.7-5 2.7-1.4 2.9-1.6 6.2-3.5 3.4-1.8 17.3-10.1 1.7-1z"/><path fill="#504E59" d="m58 339 .8 1.8 3.3 3.6 2.4 3.9-6.7 8.1L45 373l7 7 1 3 8.6 1.8 2.7-.2 2.8-.4 3-.2 14.1-1.6 2.4-.3 4.4-.5 24 5.4 4 5-3 9-2 8h2l3 3 10 3v3h5v1l-26.3-2.1-2.3-.4L42 402l-6.6-2.1-16-10.3-.5-8.6z"/><path fill="#625E69" d="m518.25 223.87 1.7 1.1-8 11.5-26.1 33.8-2.2 3.4-2 3.1-1.7 2.2h-2l-2 4-16.4 10.7-7.6.3-6 2-10.7 2.8-17 4.6-24.3 5.5-2.6.4-16.4-.3 10-7 2.9-1.8 3.2-1.9 6.8-4 1.8-1.1 17.3-10.4 35.7-21.5 20.4-12.4 15-9.1 13.5-8.3 2.8-1.7 5.2-3.3 2.4-1.5 2.1-1.3z"/><path fill="#717077" d="m628 410 24.5 13.5 5.3 3.2 8.7 5.2 2.8 1.6 2.6 1.6 2.3 1.4 2.7 3.6.1 1.9-21.6 14.4-15.8 9.5-3 1.9-17.7 10.8-1.9 1.2-8.2 5.5-6 1.8-11.3-5.5-5-2.9-2.2-1.3-2-1-1.3-1.4 1-5 5.3-3.5 3.3-1.8 1.8-1 7.2-4 5.2-2.9 11.7-7 3.2-2.1 4.3-4.7.3-7 .1-4.2.1-6.6.1-6.3V415l.4-3z"/><path fill="#757B81" d="m338 91 1.2 28.6 1.6 15.6 1 2.6 4.2 5.2v2l2.3.1 3.1.3 3 .2 4.6 2.4-13.8 2.9-4.7 1-6.8 1.5-2.1.4-5.6 1.2-2.7.6-12.7.7-2.9.1L294 152l-2.2-4.3-.9-2.4-.9-2.3-6-12-3-1 1-7 11.9-7.5 3.7-2.1 7.5-4.2 11.4-6.5 3.6-2.1 1.7-1 8.3-4.8 2.7-1.6z"/><path fill="#9F7A6A" d="m421 569 7.3 3.8 1.9 1 6 5.2-2.1 3.9-12.4 7.7-5.9 3.4-3.3 1.9-18 10.7-6.1 3.6-2 1.2-3.8 2.2-9.2 5.8-1.8 1.1-4.6 3.1-10 1.4-4.5-2.3-2.4-1.5-2.3-1.6-2.5-1.5-9.3-6.1-.8-6-1.2-7h3l-.3-1.8.5-10.4.8-2.8-4-5 21.2 7.1 6.3 3.9 2.8 1.8 8.7.2 4.9-2.3 2.8-1.5 3-1.6 3-1.6 14.8-8.2 2.6-1.6 4.8-2.9z"/><path fill="#BFB0AC" d="m464.4 17.27 1.6.7-3 9h-2l-.5 1.6-7.9 18.1-1.6 3-14 25.8-6.4 11.8-1.6 3-3.2 5.9-1.4 2.7-1.3 2.3-3.1 2.8h-6l-15-31 .6-7.4.5-5 4.1-9.6 9.2-5.3 6.8-3.9 3.5-1.9 13.9-8.2 4.8-2.9 9-5.5 2.1-1.3 3.8-2.5z"/><path fill="#5F5B66" d="m605 392 2 1v4l6 5 1.4 16.6v4.5l.1 6.5.1 3.9-5.6 8.5-6.2 3.7-1.8 1-5.6 3.2-7.4 4.1-1.8 1-13.8 8.8-7.4 1.2-3.1-11.6-.3-2.4 1.4-22 1.8-.8 6.3-6.5 2-2.9 4.9-7.8-1-2 2.5-1.5 9-5.3 3.9-2.3 5.6-3.3 3.4-2z"/><path fill="#B16847" d="m289 446 8 4.2 2.4 1.3 7.6 4.5 2.6 1.5 16.3 9.7 8.3 4.9 8.7 5.1 3.3 2 3.1 1.9 2.8 1.6 1.9 1.3v1l-21.7 3.1L314 492l-2 3 2 3-10.7-5.4-3.3-2-3.6-2.2-7.6-4.6-1.9-1.2-13.4-8-1.8-1.1-8.6-5.1L242 453l8.8 2.6 15.6-.6 7.3-4.1z"/><path fill="#87534A" d="m310.94 559.56 3.6 2.2 26.5 16.2-1 2h-5l2.1 2.2 1.9 2.8-2 5 .1 7.1-.1 1.9-2 1 .5 2.7.5 8.3-30.3-17.1-22.9-14.1-16.8-12.8 4.1-11.8z"/><path fill="#BFB0AC" d="m218 338 4.6 9.1-5.6 6.9-67 22-2.5.6-22.5 2.8-33.9 3.2-8.9 1-5.4.7-11.8.7v-4l2.9-.8 19.7-5.2 2.9-.8 6-1.6 19.3-5.2 81.1-24.1 3.1-1.1 5.9-2 2.6-.9 2.3-.8z"/><path fill="#D39450" d="m429 512 3 4-3.9 13.6-.8 1.9-3.4 8.2-2.8 9.8-18.2 14.4-6.5 3.5-3.2 1.8-11.9 7.6-4.5.9-2.8-1.7-.2-7.1-.1-2.2v-4.6l-.1-7v-4.4l-.1-2.1L378 538l5.2-3.4 3.5-2.1 4.3-2.5 5.9-3.5 6.4-3.7 3.1-1.9z"/><path fill="#3E3847" d="m676.56 105.25 4.4 2.8-.3 4.4-.7 8.3-15.2 27.2-15.2 19.1-11 13.2-10.2 12.1-6.6 8.1-7.8 9.6 2.2-6.7 1.4-2.2 1.6-2.3 1.5-2.3 4.3-6.5 2-3 2.9-4.3 2.6-4.4 6.1-7.6 3.4-11.7-8.3-.2-2.3 1.5-15.3 8.3-5 2.5-5.1 2.6-10 5.1-2.4 1.3-13 6.8-2.6 1.4-5 2.7-2.3 1.2-2 1.1-1.7.7-2-1 6.4-4 5.7-3.5 17.1-10.6 7.9-4.9 9.3-5.7 19.4-12.6 1.8-1.2 7.4-9.5.5-5.1 6.2-11.4z"/><path fill="#605D68" d="m206 253 9.8 4.6 2.8 1.6 3 1.7 3 1.7 38.9 23.3 8.5 5 2.6 1.6 5.2 3.1 16.2 13.3v2.1l-1.9-.3-2.7-.3-2.5-.3-9.9.9-52-9-2.5-12.5-3.4-9.4-4.3-11-.9-2.3-1.9-7.8-1.8-.9z"/><path fill="#513E47" d="m313 295 3 1 3.1 18.9 3.2 15.3 1.9 32.7v59l.1 2.4-2.3 7.7-11-4-2.3-8.9-.1-2.9V413l-.1-3.4-.1-10.8-.1-7.5-.3-18.8-.1-9.9-.1-14.1-.1-5.1v-7l-.1-3.9 3.4-9.5.5-4.2.1-2.2v-2.4l.2-4.7.1-2.4z"/><path fill="#966D61" d="m436.19 308.94 3.8.1-2 1 1 3-4.4 7.5-1.4 2.2-10.7 14.4-2.5 3.9-8.5.5-4.9.3-2.4.1-20.1 3.7-30.3 6-12.8 5.4h-2l-1 3h-2l-1 2-.2-12.9-.1-3.6v-6.8l1.6-4.6 8.7-1.1 7.7 4.7 6.3.3 10.4-2.5 2.9-.7 2.8-.7 2.5-.6 7.4-1.5v-2l10-3.5 4-2.5h5v-2l2.8-.9 7.2-3.1 7-3-1-2z"/><path fill="#654043" d="m560 276 1.1 3.4v10.2l-.1 3.6v8.8l-5.6-10.2-4.9-2.3-4.4.1h-2.3L524 294l-10.2 1.3-7.5 2.2-12.7 2.2-2.4.2-7.2.3-4.9.2-12.1.6 1-11 5-5 2.4-3.2 12.1-5 3.8.1h2.1l8.8.1 30.9-3.1z"/><path fill="#2F283A" d="m576 410 3 1-2.6 4-3 4.6L555 435l-10 5.7-4.3 2.5-4.7 2.8-5.2 3.1-22.2 13.1-31.5 18.5-15.7 9.3-3.2 2-6.2 3.7-16 4.3-2-4 9.1-8.2 3.1-1.8 3.4-1.8 5.2-3 3.7-2 17.9-10.5 25.4-14.8 11.1-6.5 19.2-11.3 39.5-23.7z"/><path fill="#8E665D" d="m290 309.38 2.1.3 4.9 1.3.5 4.4.1 2.8.1 3 .1 3 .1 6.1.4 7-3.2 14.2-4.1 3.5-2 1.7-23.3 9.1-3.7-2.8-.1-7.1.1-4.3.1-6.8.1-6.6.1-3.9-1.8-5.2-1.5-1.1 8.7-5.3 2.5-1.5 4.7-2.9 5.1-3.1 4-1.2-1-4z"/><path fill="#BFB0AC" d="m609 387-1 4-6.3 4.2-2.1 1.3-4.9 2.9-8.9 5.4-69.8 41.6-15.4 9-27.4 16-10.8 6.4-2 1.1-4.9 3-4.9.8-1.6-.7 10-13 8.7-5.1 20.5-12.3 25.1-14.7 19.6-11.3 60.2-33.1 5.8-3 2.7-1.5 2.4-1.2z"/><path fill="#4A4854" d="m204.59 450.43 10.7 4.5 2.2 1.2 16.7 11.7 8.8 5.2-.6 2.1 7.6 26.2 1 5.7-20.4-11.5-16.6-9.6-6.4-3.5-2.1-1.1-10.5-10.3-.2-9-.1-2.5v-4.6z"/><path fill="#413C4A" d="m541 55 13.8 6.8 4.2 2.6 2.1 1.4 7.7 4.8 2.3 1.3L576 74l3 3 11.9 7.3 3.2 2 27.5 12.8 7.4 4.9-.1 26.2-.3 3.7-5.6 15.6-14.3 8.6-3.3 1.8-6.4 3.5-10.3 5.8-1.7.8-2-1 17.1-14.2 9.1-6.4 2.9-2.2 1.9-2.2-1-5-3.3.2-3.7-1.2-2.7-13.2 15.2-12 3.5-4.4V106l-17.5-8.1-11.7-5.7-8.6-4.2-6.3-3.7L568 81l-3 2-8.9-1.2L555 76h-2l.6-2.9-2.5-6.4-4.8-4.5z"/><path fill="#635F6A" d="m129.59 334.55 7.9 1.4 5.5 1 2.6.4 16.4 5.7 3.1 1.4 2.5 1.3 2.5 1.3 1.9 1-1 4-10 4-3.6 1.1-16.4 1.9v-2l-19.2-4.1-32.8-11.9v-5z"/><path fill="#654043" d="m234 393-9.9 20.5-6.1 2.5-2.3.8-6.7 2.2-3.2 1.2-11.8-.2v-2l-11-2-2.4-.5-24.5 3.3L142 421v-2l-3.7.1-9.3-1.1v-2l2.1.1 9.5.1 3.3.2 21.3-9.2L188 394l3.5 2.4L210 399l11.8-3.9z"/><path fill="#625E69" d="m522.14 365.3 2.9 1.7.3 12.2.1 3.5.1 3.4v3.1l-5.5 7.8-6.2 3.6-1.8 1-5.5 3-5.5 2.9-5 2.7-6.3 4.1-2.7 1.7-2-1 .5-4.2-3.3-13.3-.7-5.4 7.6-7.9 1.8-1.3 16.5-9.8 9.3-5.9z"/><path fill="#929696" d="m162 230 13.7 11.9.9 22.6-1.6 3.5-1 6-15.5-6.5-2.7-1.6-5.3-3.3-6.9-4.3-3.7-2.3-3.3-2.1-4.6-5.9 17.2-13.5 1.8-1.3z"/><path fill="#D39450" d="m338 380 7 1 4.5 6.1 7.5 4.9 6.9-.9 5.1 1.9-3 9.4-1.1 2.5-1.3 2.5-2.4 4.9-1.2 2.4-2.4 6.1-8.5 8-1.9 1.2-5.2 3-2.3 1.4-1.7.6-3-2-.4-4.3v-33.9z"/><path fill="#88544B" d="m324 525 15.4 3.9 8.2 3L363 542l.4 11.8.1 3.3-2.7 12.3-5.2 1.2-9.6-6.5-1.8-1.3-3.6-2.6-4.2-2.9-8.2-12.1-1.4-2.6L322 527z"/><path fill="#3D3645" d="m210.09 446.77 4.3 2.5 2.3 1.3 18.3 11.9 17.8 10.2 23.2 15.3-2 1-5-3-16-7.5-22.6-12.4-32.4-15.1-2.4 10.8v2.4l4.4 12.8 7.4 4.4 4.3 2.3 2.2 1.2 21.4 12.9 11.5 6.2 13.7 9.7 20.5 14.3 16 12-12.5-6.3-2.2-1.3-17.2-10.6-27-15.9-24.7-14.5-3.4-2-9-5.4-2.5-1.4-2.1-1.3-1.9-1.1-3.5-4.2-.4-12.9v-7.1l-.1-3.2 4.5-6.8z"/><path fill="#644043" d="m262.03 531.22 11 5.8 2.2 1.2 7 4 2.2 1.3 2 1.2 1.9 1.1 4.7 4.2-4-.2-18 5.2-4 15-9.3-5.6-2.7-1.6-10-10.8 1-19z"/><path fill="#B56946" d="m509 436-1 5-7.2 4.2-4.4 2.4-2.2 1.2-9.6 6.1L458 460l-7-3-8-3 16.9-11.2 3.2-2 20.7-4.9 14.7-2.5z"/><path fill="#AF6646" d="m431 495 2 1-.6 1.6.1 5.2.7 16.3v3.5l-3.9 25.4-9.3 6-2-1 4.4-11.1 5.4-14.6 2.4-6.1-.2-7.2-2.8-1.1-16.2 6-5 3-2.5 1.6-7.2 4.2L374 543l-.4-1.9-.5-2.4-.5-2.4-2.6-5.3 1.9-1 17.3-9.9 14-8.3 1.9-1.2 7.9-4.5 5.6-3.3 3.3-1.9 6.4-4.2z"/><path fill="#635F6A" d="m134.19 505.13 11.2 8.7 10.6 5.3 4 3.9.3 7v3.7l-2.3 6.3v-8l-.9 1.6-9.1 9.4-12.7-1.1-9.5-14-.2-7.8-.1-2.7 2.8-10.6z"/></svg>